<?xml version="1.0" encoding="UTF-8" standalone="no"?>
<svg
   xmlns:dc="http://purl.org/dc/elements/1.1/"
   xmlns:cc="http://creativecommons.org/ns#"
   xmlns:rdf="http://www.w3.org/1999/02/22-rdf-syntax-ns#"
   xmlns:svg="http://www.w3.org/2000/svg"
   xmlns="http://www.w3.org/2000/svg"
   xmlns:sodipodi="http://sodipodi.sourceforge.net/DTD/sodipodi-0.dtd"
   xmlns:inkscape="http://www.inkscape.org/namespaces/inkscape"
   version="1.1"
   id="svg833"
   xml:space="preserve"
   width="677.33331"
   height="198.66667"
   viewBox="0 0 677.33331 198.66667"
   sodipodi:docname="briefly.svg"
   inkscape:version="1.0.1 (c497b03c, 2020-09-10)"><metadata
     id="metadata839"><rdf:RDF><cc:Work
         rdf:about=""><dc:format>image/svg+xml</dc:format><dc:type
           rdf:resource="http://purl.org/dc/dcmitype/StillImage" /><dc:title></dc:title></cc:Work></rdf:RDF></metadata><defs
     id="defs837"><clipPath
       clipPathUnits="userSpaceOnUse"
       id="clipPath851"><path
         d="M 0,0 H 508 V 149 H 0 Z"
         id="path849" /></clipPath></defs><sodipodi:namedview
     pagecolor="#ffffff"
     bordercolor="#666666"
     borderopacity="1"
     objecttolerance="10"
     gridtolerance="10"
     guidetolerance="10"
     inkscape:pageopacity="0"
     inkscape:pageshadow="2"
     inkscape:window-width="1440"
     inkscape:window-height="801"
     id="namedview835"
     showgrid="false"
     inkscape:zoom="0.94340554"
     inkscape:cx="338.66666"
     inkscape:cy="99.333336"
     inkscape:window-x="0"
     inkscape:window-y="166"
     inkscape:window-maximized="1"
     inkscape:current-layer="g845" /><g
     id="g841"
     inkscape:groupmode="layer"
     inkscape:label="briefly"
     transform="matrix(1.3333333,0,0,-1.3333333,0,198.66667)"><g
       id="g843" /><g
       id="g845" /><g
       id="g855"
       transform="translate(4.5,-6)"><path
         d="m 60,122 v 25 H 87 L 77.06068,134.1616 87,122 Z"
         style="fill:#0793bb;fill-opacity:1;fill-rule:evenodd;stroke:none"
         id="path857" /><path
         d="m 60,89 v 25 h 27 l -7.83169,-5.4529 2.6589,-9.23487 -7.735,-2.8584 L 87,89 Z"
         style="fill:#0793bb;fill-opacity:1;fill-rule:evenodd;stroke:none"
         id="path859" /><path
         d="m 26,73 v 25 h 27 l -6.09132,-7.21196 -3.8675,-9.45471 6.52641,2.8584 L 53,73 Z"
         style="fill:#0793bb;fill-opacity:1;fill-rule:evenodd;stroke:none"
         id="path861" /><path
         d="m 26,106 v 25 h 27 l -5.8496,-8.0915 -10.63563,1.9789 2.17547,-15.3914 10.87735,7.6957 L 53,106 Z"
         style="fill:#0793bb;fill-opacity:1;fill-rule:evenodd;stroke:none"
         id="path863" /><path
         d="M 60,55 V 80 H 87 L 80.42525,74.32718 70.51477,73.88742 70.27305,65.09235 75.10743,63.77309 85.98478,70.80915 87,55 Z"
         style="fill:#0793bb;fill-opacity:1;fill-rule:evenodd;stroke:none"
         id="path865" /><path
         d="M 305,53 288,65.89722 V 136.1028 L 305,149 Z"
         style="fill:#edab27;fill-opacity:1;fill-rule:evenodd;stroke:none"
         id="path867" /><path
         d="M 326,63 310,75.13856 V 123.8614 L 326,136 Z"
         style="fill:#ed9f49;fill-opacity:1;fill-rule:evenodd;stroke:none"
         id="path869" /><path
         d="M 349,67 332,79.89719 V 115.1028 L 349,128 Z"
         style="fill:#f5916f;fill-opacity:1;fill-rule:evenodd;stroke:none"
         id="path871" /><path
         d="m 453,122 v 25 h 27 L 470.0607,134.1616 480,122 Z"
         style="fill:#7f7f7f;fill-opacity:1;fill-rule:evenodd;stroke:none"
         id="path873" /><path
         d="m 453,89 v 25 h 27 l -7.8317,-5.4529 2.6589,-9.23487 -7.735,-2.8584 L 480,89 Z"
         style="fill:#7f7f7f;fill-opacity:1;fill-rule:evenodd;stroke:none"
         id="path875" /><path
         d="m 419,73 v 25 h 26 l -5.8657,-7.21196 -3.7243,-9.45471 6.2847,2.8584 L 445,73 Z"
         style="fill:#7f7f7f;fill-opacity:1;fill-rule:evenodd;stroke:none"
         id="path877" /><path
         d="m 419,106 v 25 h 26 l -5.6329,-8.0915 -10.2418,1.9789 2.0949,-15.3914 10.4745,7.6957 L 445,106 Z"
         style="fill:#dd5167;fill-opacity:1;fill-rule:evenodd;stroke:none"
         id="path879" /><path
         d="m 453,55 v 25 h 27 l -6.5748,-5.67282 -9.9104,-0.43976 -0.2417,-8.79507 4.8343,-1.31926 10.8774,7.03606 L 480,55 Z"
         style="fill:#dd5167;fill-opacity:1;fill-rule:evenodd;stroke:none"
         id="path881" /><path
         d="m 157,72 v 51 h 55 l -13.393,-11.5726 -20.188,-0.8971 -0.4924,-17.94191 9.8478,-2.69129 22.1576,14.3536 L 212,72 Z"
         style="fill:#0793bb;fill-opacity:1;fill-rule:evenodd;stroke:none"
         id="path883" /><path
         d="m 172,130 h 46 V 83 h -46 z"
         style="fill:#f99612;fill-opacity:0.3373;fill-rule:nonzero;stroke:none"
         id="path885" /><g
         id="g887"
         transform="matrix(7.874016e-5,0,0,-7.874016e-5,172,130)"><path
           d="M 0,0 H 584200 V 596900 H 0 Z"
           style="fill:none;stroke:#404040;stroke-width:50800;stroke-linecap:butt;stroke-linejoin:miter;stroke-miterlimit:8;stroke-dasharray:50800, 50800;stroke-dashoffset:0;stroke-opacity:1"
           id="path889" /></g><g
         id="g891"
         transform="translate(10.50059,-113)"><text
           transform="matrix(1,0,0,-1,0,149)"
           style="font-variant:normal;font-weight:bold;font-size:16px;font-family:'News Cycle';-inkscape-font-specification:NewsCycle-Bold;writing-mode:lr-tb;fill:#000000;fill-opacity:1;fill-rule:nonzero;stroke:none"
           id="text895"><tspan
             x="0 9 17.007999 25.016001 30.016001 38.023998 43.023998 55.015999 62.015999 67.015999 70.015999 78.024002 86.031998 93.031998 97.040001"
             y="0"
             sodipodi:role="line"
             id="tspan893">Conformational </tspan></text></g><g
         id="g897"
         transform="translate(28.50059,-132)"><text
           transform="matrix(1,0,0,-1,0,149)"
           style="font-variant:normal;font-weight:bold;font-size:16px;font-family:'News Cycle';-inkscape-font-specification:NewsCycle-Bold;writing-mode:lr-tb;fill:#000000;fill-opacity:1;fill-rule:nonzero;stroke:none"
           id="text901"><tspan
             x="0 8 16 23.007999 30.016001 42.015999 50.015999 54.015999"
             y="0"
             sodipodi:role="line"
             id="tspan899">Ensemble</tspan></text></g><g
         id="g903"
         transform="translate(140.608,-114)"><text
           transform="matrix(1,0,0,-1,0,149)"
           style="font-variant:normal;font-weight:bold;font-size:16px;font-family:'News Cycle';-inkscape-font-specification:NewsCycle-Bold;writing-mode:lr-tb;fill:#000000;fill-opacity:1;fill-rule:nonzero;stroke:none"
           id="text907"><tspan
             x="0 9"
             y="0"
             sodipodi:role="line"
             id="tspan905">3D</tspan></text></g><g
         id="g909"
         transform="translate(163.608,-114)"><text
           transform="matrix(1,0,0,-1,0,149)"
           style="font-variant:normal;font-weight:normal;font-size:16px;font-family:'News Cycle';-inkscape-font-specification:NewsCycle;writing-mode:lr-tb;fill:#000000;fill-opacity:1;fill-rule:nonzero;stroke:none"
           id="text913"><tspan
             x="0 8 10.992 18.992001 26.992001 29.983999 37.984001 45.984001 48.976002 55.967999 58.959999 63.967999 70.959999"
             y="0"
             sodipodi:role="line"
             id="tspan911">binding site </tspan></text></g><g
         id="g915"
         transform="translate(156.608,-133)"><text
           transform="matrix(1,0,0,-1,0,149)"
           style="font-variant:normal;font-weight:bold;font-size:16px;font-family:'News Cycle';-inkscape-font-specification:NewsCycle-Bold;writing-mode:lr-tb;fill:#000000;fill-opacity:1;fill-rule:nonzero;stroke:none"
           id="text919"><tspan
             x="0 8 12.992 20.992001 28.992001 35.984001 40.976002 45.984001 48.976002 55.967999"
             y="0"
             sodipodi:role="line"
             id="tspan917">properties</tspan></text></g><g
         id="g921"
         transform="translate(274.4128,-115)"><text
           transform="matrix(1,0,0,-1,0,149)"
           style="font-variant:normal;font-weight:bold;font-size:16px;font-family:'News Cycle';-inkscape-font-specification:NewsCycle-Bold;writing-mode:lr-tb;fill:#000000;fill-opacity:1;fill-rule:nonzero;stroke:none"
           id="text925"><tspan
             x="0 9 19 29 33 40 44 51 58 65 68 73 76 83"
             y="0"
             sodipodi:role="line"
             id="tspan923">CNN classifier</tspan></text></g><g
         id="g927"
         transform="translate(292.4128,-134)"><text
           transform="matrix(1,0,0,-1,0,149)"
           style="font-style:italic;font-variant:normal;font-weight:bold;font-size:16px;font-family:Times;-inkscape-font-specification:Times-BoldItalic;writing-mode:lr-tb;fill:#000000;fill-opacity:1;fill-rule:nonzero;stroke:none"
           id="text931"><tspan
             x="0"
             y="0"
             id="tspan929">f</tspan></text></g><g
         id="g933"
         transform="translate(297.4128,-134)"><text
           transform="matrix(1,0,0,-1,0,149)"
           style="font-variant:normal;font-weight:bold;font-size:16px;font-family:Times;-inkscape-font-specification:Times-Bold;writing-mode:lr-tb;fill:#000000;fill-opacity:1;fill-rule:nonzero;stroke:none"
           id="text937"><tspan
             x="0"
             y="0"
             id="tspan935">(</tspan></text></g><g
         id="g939"
         transform="translate(302.4128,-134)"><text
           transform="matrix(1,0,0,-1,0,149)"
           style="font-variant:normal;font-weight:normal;font-size:16px;font-family:Times;-inkscape-font-specification:Times-Roman;writing-mode:lr-tb;fill:#000000;fill-opacity:1;fill-rule:nonzero;stroke:none"
           id="text943"><tspan
             x="0"
             y="0"
             id="tspan941">X</tspan></text></g><g
         id="g945"
         transform="translate(314.4128,-134)"><text
           transform="matrix(1,0,0,-1,0,149)"
           style="font-variant:normal;font-weight:bold;font-size:16px;font-family:Times;-inkscape-font-specification:Times-Bold;writing-mode:lr-tb;fill:#000000;fill-opacity:1;fill-rule:nonzero;stroke:none"
           id="text949"><tspan
             x="0 5"
             y="0"
             sodipodi:role="line"
             id="tspan947">) </tspan></text><text
           transform="matrix(1,0,0,-1,10,149)"
           style="font-variant:normal;font-weight:bold;font-size:16px;font-family:Times;-inkscape-font-specification:Times-Bold;writing-mode:lr-tb;fill:#000000;fill-opacity:1;fill-rule:nonzero;stroke:none"
           id="text953"><tspan
             x="0"
             y="0"
             id="tspan951">≈</tspan></text><text
           transform="matrix(1,0,0,-1,22,149)"
           style="font-variant:normal;font-weight:bold;font-size:16px;font-family:Times;-inkscape-font-specification:Times-Bold;writing-mode:lr-tb;fill:#000000;fill-opacity:1;fill-rule:nonzero;stroke:none"
           id="text957"><tspan
             x="0"
             y="0"
             id="tspan955">y</tspan></text></g><g
         id="g959"
         transform="translate(411.215,-116)"><text
           transform="matrix(1,0,0,-1,0,149)"
           style="font-variant:normal;font-weight:bold;font-size:16px;font-family:'News Cycle';-inkscape-font-specification:NewsCycle-Bold;writing-mode:lr-tb;fill:#000000;fill-opacity:1;fill-rule:nonzero;stroke:none"
           id="text963"><tspan
             x="0 9 16 23"
             y="0"
             sodipodi:role="line"
             id="tspan961">Best</tspan></text></g><g
         id="g965"
         transform="translate(443.215,-116)"><text
           transform="matrix(1,0,0,-1,0,149)"
           style="font-variant:normal;font-weight:normal;font-size:16px;font-family:'News Cycle';-inkscape-font-specification:NewsCycle;writing-mode:lr-tb;fill:#000000;fill-opacity:1;fill-rule:nonzero;stroke:none"
           id="text969"><tspan
             x="0 8 12.992 20.992001 26 32.992001 35.984001 43.984001"
             y="0"
             sodipodi:role="line"
             id="tspan967">protein </tspan></text></g><g
         id="g971"
         transform="translate(404.215,-135)"><text
           transform="matrix(1,0,0,-1,0,149)"
           style="font-variant:normal;font-weight:bold;font-size:16px;font-family:'News Cycle';-inkscape-font-specification:NewsCycle-Bold;writing-mode:lr-tb;fill:#000000;fill-opacity:1;fill-rule:nonzero;stroke:none"
           id="text975"><tspan
             x="0 7 15.008 23.016001 28.016001 36.023998 41.023998 53.015999 60.015999 65.015999 68.015999 76.024002 84.031998"
             y="0"
             sodipodi:role="line"
             id="tspan973">conformations</tspan></text></g><path
         d="m 101,100 h 27 v -4 h -27 z"
         style="fill:#404040;fill-opacity:1;fill-rule:nonzero;stroke:none"
         id="path977" /><path
         d="m 122.502,109.0581 10.3814,-11.13275 -2.9682,-2.76789 -10.3814,11.13274 z"
         style="fill:#404040;fill-opacity:1;fill-rule:nonzero;stroke:none"
         id="path979" /><path
         d="m 122.5256,86.85656 10.3145,11.06095 -2.9682,2.76789 -10.3145,-11.06094 z"
         style="fill:#404040;fill-opacity:1;fill-rule:nonzero;stroke:none"
         id="path981" /><path
         d="m 238,98 h 26 v -4 h -26 z"
         style="fill:#404040;fill-opacity:1;fill-rule:nonzero;stroke:none"
         id="path983" /><path
         d="m 258.8964,107.2926 10.3814,-11.13268 -2.9682,-2.7679 -10.3814,11.13268 z"
         style="fill:#404040;fill-opacity:1;fill-rule:nonzero;stroke:none"
         id="path985" /><path
         d="m 258.92,85.09113 10.3145,11.06095 -2.9682,2.76789 -10.3145,-11.06095 z"
         style="fill:#404040;fill-opacity:1;fill-rule:nonzero;stroke:none"
         id="path987" /><path
         d="m 363,98 h 27 v -3 h -27 z"
         style="fill:#404040;fill-opacity:1;fill-rule:nonzero;stroke:none"
         id="path989" /><path
         d="M 384.5822,107.4594 394.9636,96.32669 391.9954,93.5588 381.614,104.6915 Z"
         style="fill:#404040;fill-opacity:1;fill-rule:nonzero;stroke:none"
         id="path991" /><path
         d="m 384.6058,85.2579 10.3145,11.06095 -2.9682,2.76789 -10.3145,-11.06094 z"
         style="fill:#404040;fill-opacity:1;fill-rule:nonzero;stroke:none"
         id="path993" /></g></g></svg>
