<?xml version="1.0" encoding="UTF-8" standalone="no"?>
<svg
   xmlns:dc="http://purl.org/dc/elements/1.1/"
   xmlns:cc="http://creativecommons.org/ns#"
   xmlns:rdf="http://www.w3.org/1999/02/22-rdf-syntax-ns#"
   xmlns:svg="http://www.w3.org/2000/svg"
   xmlns="http://www.w3.org/2000/svg"
   xmlns:sodipodi="http://sodipodi.sourceforge.net/DTD/sodipodi-0.dtd"
   xmlns:inkscape="http://www.inkscape.org/namespaces/inkscape"
   width="33.630711cm"
   height="17.17944cm"
   viewBox="0 0 1191.6394 608.72031"
   id="svg27229"
   version="1.1"
   inkscape:version="1.0.1 (c497b03c, 2020-09-10)"
   sodipodi:docname="logoCnyn.svg">
  <defs
     id="defs27231" />
  <sodipodi:namedview
     id="base"
     pagecolor="#ffffff"
     bordercolor="#666666"
     borderopacity="1.0"
     inkscape:pageopacity="0.0"
     inkscape:pageshadow="2"
     inkscape:zoom="0.35"
     inkscape:cx="623.38539"
     inkscape:cy="374.99048"
     inkscape:document-units="px"
     inkscape:current-layer="layer1"
     showgrid="false"
     borderlayer="true"
     inkscape:window-width="1148"
     inkscape:window-height="558"
     inkscape:window-x="1863"
     inkscape:window-y="110"
     inkscape:window-maximized="0"
     fit-margin-top="0"
     fit-margin-left="0"
     fit-margin-right="0"
     fit-margin-bottom="0"
     showguides="true"
     inkscape:guide-bbox="true"
     inkscape:document-rotation="0">
    <sodipodi:guide
       position="1331.4286,-91.428577"
       orientation="1,0"
       id="guide4198" />
  </sodipodi:namedview>
  <metadata
     id="metadata27234">
    <rdf:RDF>
      <cc:Work
         rdf:about="">
        <dc:format>image/svg+xml</dc:format>
        <dc:type
           rdf:resource="http://purl.org/dc/dcmitype/StillImage" />
        <dc:title />
      </cc:Work>
    </rdf:RDF>
  </metadata>
  <g
     inkscape:label="Capa 1"
     inkscape:groupmode="layer"
     id="layer1"
     transform="translate(-20.6607,-420.48071)">
    <path
       style="fill:#fff6d5;stroke-width:0.772847"
       d="m 747.55518,1021.6978 c -45.95608,-0.569 -64.16412,-1.1193 -68.03237,-2.056 -1.56625,-0.3793 -2.50996,-1.1308 -2.67082,-2.1268 -0.29225,-1.8095 4.93469,-14.7051 34.91102,-86.13033 57.30611,-136.54457 118.52139,-280.4457 128.32681,-301.66281 2.05555,-4.44781 2.65457,-5.14706 4.32478,-5.0483 2.92529,0.17297 93.83788,33.11835 165.375,59.92944 38.7004,14.50441 43.473,16.72743 43.473,20.24934 0,3.92813 -16.2196,43.0306 -103.67898,249.94992 l -28.60288,67.67124 -65.25252,-0.1221 c -35.8889,-0.067 -84.56677,-0.3613 -108.17304,-0.6536 z m -552.70284,-0.66 c -9.88718,-0.5377 -12.14732,-1.0422 -12.14732,-2.7116 0,-2.8896 5.21282,-15.1155 165.84833,-388.97312 70.74413,-164.64748 84.63847,-196.26318 88.03582,-200.31989 2.88372,-3.44339 5.22681,-3.30054 17.92571,1.09283 46.79028,16.18782 178.1618,66.48747 182.56349,69.90008 0.70318,0.54516 1.70533,0.99121 2.22701,0.99121 0.52168,0 0.94851,0.30954 0.94851,0.68786 0,0.37832 0.63863,0.87247 1.41919,1.0981 0.78056,0.22564 1.86301,1.0575 2.40546,1.84861 0.82756,1.20688 0.40368,2.98038 -2.63391,11.02013 -1.99111,5.26998 -3.6202,10.10281 -3.6202,10.73965 0,0.63684 -0.35299,1.15788 -0.78441,1.15788 -0.43142,0 -0.57464,0.49785 -0.31827,1.10634 0.25639,0.60849 0.0628,1.10636 -0.43031,1.10636 -0.49307,0 -0.89648,0.9957 -0.89648,2.21268 0,1.21697 -0.36442,2.21268 -0.80982,2.21268 -0.4454,0 -0.80982,0.82976 -0.80982,1.84391 0,1.01415 -0.36011,1.8439 -0.80025,1.8439 -0.44014,0 -1.03463,1.33496 -1.3211,2.9666 -0.28647,1.63161 -0.84336,3.14812 -1.23751,3.36998 -0.39417,0.22188 -0.50701,0.71237 -0.25075,1.09 0.25625,0.37762 0.08,0.6866 -0.3917,0.6866 -0.47169,0 -0.85762,0.76337 -0.85762,1.69639 0,0.93301 -0.31466,2.0117 -0.69925,2.39708 -0.38459,0.38537 -1.70319,3.18995 -2.93022,6.23239 -1.22702,3.04245 -2.5137,6.19553 -2.85927,7.00684 -0.34557,0.81132 -1.26142,3.13464 -2.03521,5.16293 -0.77378,2.0283 -1.72338,4.00312 -2.1102,4.38851 -0.38684,0.38536 -0.70334,1.16496 -0.70334,1.73242 0,0.56747 -0.51458,2.07763 -1.14351,3.35591 -0.62893,1.27828 -1.77477,4.14962 -2.54631,6.38075 -0.77154,2.23112 -9.40139,23.30695 -19.17745,46.83518 -9.77604,23.52822 -34.28549,82.60693 -54.46542,131.286 -62.24551,150.15179 -96.63328,232.20758 -103.73334,247.52761 -2.02292,4.3649 -4.25694,8.3739 -4.9645,8.9088 -1.0024,0.7579 -9.44018,1.0763 -38.2116,1.442 -61.58815,0.7828 -188.56955,1.2155 -198.48443,0.6764 z m 431.64905,0.1022 c -0.66015,-0.2083 -1.68033,-0.8159 -2.26708,-1.3503 -2.35351,-2.1435 6.26776,-25.16891 41.93811,-112.00701 40.33415,-98.19198 50.7325,-121.02041 57.15796,-125.48404 3.30649,-2.29695 9.2431,-3.27931 9.2431,-1.52952 0,2.45677 -8.32882,23.11532 -53.43775,132.54526 -39.05631,94.74691 -43.1669,104.02101 -47.12967,106.33211 -2.6219,1.529 -4.11121,1.9331 -5.50467,1.4935 z m -27.05545,-1.0713 c -1.25691,-0.8591 -1.42511,-1.564 -0.93775,-3.93 0.85282,-4.1404 11.44193,-29.84734 66.96374,-162.56681 14.7684,-35.30244 31.54299,-73.26839 35.31261,-79.92309 4.08664,-7.21436 6.71878,-9.31454 11.67963,-9.31913 3.80722,-0.004 5.53254,0.6141 5.53254,1.98055 0,1.62277 -2.91925,9.13366 -17.43255,44.85186 -60.15706,148.05054 -83.89079,202.77712 -90.16858,207.91562 -2.22251,1.8191 -8.85904,2.4198 -10.94964,0.991 z m 58.6011,-0.2018 c -0.78798,-0.8647 -0.81489,-1.5168 -0.11415,-2.7658 0.50429,-0.8989 2.52419,-5.7832 4.48866,-10.8539 6.90521,-17.82392 61.74104,-149.33577 74.57782,-178.85876 13.01394,-29.9304 15.54255,-34.29663 19.86215,-34.29663 1.28726,0 2.57116,0.33998 2.85312,0.75549 0.99712,1.4694 -8.00893,23.89767 -38.49443,95.86512 -41.49375,97.95466 -53.73232,124.98818 -58.58565,129.40838 -2.38917,2.176 -3.16899,2.3029 -4.58752,0.7461 z m -76.57353,-2.3846 c -2.71001,-1.5142 -5.74548,-3.3008 -6.74551,-3.9701 l -1.81824,-1.2169 4.86082,-11.6904 c 19.6326,-47.21697 72.27375,-169.70752 88.31117,-205.49098 11.24781,-25.09669 15.52113,-33.66776 21.73696,-43.59822 1.77912,-2.84233 3.00751,-3.85873 5.88786,-4.87173 5.59241,-1.96682 9.70202,-2.3788 10.27048,-1.02961 0.634,1.50476 -0.31047,3.80975 -47.71068,116.43949 -22.70595,53.95264 -45.22925,107.7209 -50.05178,119.48502 -11.85411,28.91703 -16.30711,38.30643 -18.27083,38.52483 -0.84862,0.094 -3.76024,-1.0672 -6.47025,-2.5814 z m 63.27596,0.8052 c 3.89823,-15.998 22.32792,-63.18312 61.88644,-158.44634 20.78551,-50.05477 25.31236,-60.49029 29.63478,-68.31546 3.97952,-7.20439 6.80964,-7.37667 5.75219,-0.35018 -2.05304,13.64206 -55.68675,148.74203 -79.89249,201.24421 -8.65301,18.76827 -13.65382,27.39607 -16.06233,27.71167 -1.61983,0.2123 -1.76884,0 -1.31859,-1.8439 z m -82.15451,-13.9099 c -1.38233,-1.4339 -2.51079,-3.3424 -2.50768,-4.241 0.009,-2.63544 2.89723,-12.86469 6.09204,-21.57728 4.91903,-13.41478 78.53965,-191.3352 96.19426,-232.47465 9.32695,-21.734 10.51763,-23.18189 19.23167,-23.38629 3.51156,-0.0824 5.50031,0.23009 6.59274,1.03575 1.53321,1.13073 1.50878,1.29286 -1.22744,8.15028 -13.20404,33.09134 -114.97915,268.07988 -118.10961,272.70329 -0.89267,1.3184 -2.10219,2.397 -2.68784,2.397 -0.58563,0 -2.19578,-1.1732 -3.57814,-2.6071 z m -16.4238,-13.06603 c -3.69265,-6.44478 -2.36723,-11.54032 13.28561,-51.07617 11.31397,-28.57676 68.20213,-165.02853 81.27094,-194.93621 18.03334,-41.26893 21.82472,-48.32805 27.00647,-50.28287 2.89508,-1.09218 8.0283,-0.4341 8.68005,1.1128 0.61375,1.45669 -2.17917,8.338 -37.55801,92.53733 -82.43662,196.19373 -86.61214,205.77975 -89.6344,205.77975 -0.69003,0 -2.06283,-1.41059 -3.05066,-3.13463 z m -9.3599,-21.82176 c -0.50763,-0.28573 -1.31017,-1.4471 -1.78344,-2.58082 -3.21081,-7.69151 1.84102,-22.59348 31.54569,-93.05415 50.80668,-120.51553 76.88655,-179.81322 87.17226,-198.20321 5.04646,-9.02267 5.06148,-9.03655 10.39784,-9.61398 2.698,-0.29194 1.85868,5.26274 -2.42536,16.0511 -4.70775,11.8554 -40.9874,97.78462 -70.22104,166.3202 -12.02578,28.19331 -24.95922,58.72837 -28.741,67.85569 -8.4691,20.44022 -19.2383,44.92583 -21.79241,49.54885 -2.11883,3.83509 -2.79966,4.43785 -4.15254,3.67632 z m -9.2175,-26.41002 c -2.58975,-2.84573 -0.15033,-13.44232 7.78605,-33.82199 15.0778,-38.71789 92.79733,-219.35955 105.89677,-246.13329 7.17858,-14.67218 10.64583,-20.10124 14.07015,-22.03119 2.19774,-1.23866 5.15268,-1.31425 5.15268,-0.13182 0,0.76645 -13.95766,33.82386 -32.00155,75.79267 -17.06302,39.68734 -44.58072,103.81874 -77.06175,179.5963 -14.5734,33.99945 -20.06781,45.95302 -21.6835,47.17426 -0.7587,0.57347 -1.34132,0.45341 -2.15885,-0.44494 z m -6.01731,-22.25405 c -0.83695,-0.54755 -1.09412,-13.41246 -0.26813,-13.41206 0.27668,1.2e-4 0.75079,-1.74227 1.05361,-3.87198 0.84578,-5.94834 6.2062,-19.82356 22.72417,-58.82056 8.33351,-19.67446 28.63174,-67.63441 45.10712,-106.57769 42.15907,-99.65232 49.01281,-115.72085 51.00513,-119.58114 1.92001,-3.72016 4.4097,-5.10274 9.98812,-5.54662 3.15159,-0.25077 3.2318,-0.1998 2.96273,1.88276 -0.49152,3.80432 -7.61131,20.66543 -73.84257,174.87433 -47.76078,111.20335 -56.23795,130.5887 -57.38972,131.23701 -0.31312,0.17625 -0.91634,0.0934 -1.34046,-0.18405 z m -6.48385,-25.43312 c -0.31048,-0.72966 -0.38002,-3.88273 -0.15453,-7.00684 0.8362,-11.58595 13.49479,-43.90455 64.336,-164.256 46.81117,-110.81149 54.75495,-128.95557 58.73029,-134.1435 2.20301,-2.875 2.99789,-3.38631 5.28636,-3.4005 4.01792,-0.0249 2.96764,3.27119 -14.80263,46.45511 -39.01077,94.80094 -108.8064,258.69804 -111.68204,262.25658 -1.09052,1.34952 -1.17762,1.35435 -1.71345,0.0951 z m -8.13653,-31.05539 c -0.53865,-1.27845 0.18965,-3.29805 11.46266,-31.78586 13.72165,-34.67569 53.39695,-132.14615 86.76478,-213.15537 31.76821,-77.12578 29.74934,-73.16682 37.68493,-73.89966 3.86301,-0.35676 4.72583,-0.22256 5.15756,0.80213 0.81504,1.93443 2.18963,-1.36905 -54.50794,130.99612 -62.51496,145.94642 -79.01598,182.50741 -84.34781,186.88795 -1.55336,1.27621 -1.73627,1.28899 -2.21418,0.15469 z"
       id="path874" />
  </g>
</svg>
