<?xml version="1.0" encoding="UTF-8" standalone="no"?>
<svg
   xmlns:dc="http://purl.org/dc/elements/1.1/"
   xmlns:cc="http://creativecommons.org/ns#"
   xmlns:rdf="http://www.w3.org/1999/02/22-rdf-syntax-ns#"
   xmlns:svg="http://www.w3.org/2000/svg"
   xmlns="http://www.w3.org/2000/svg"
   xmlns:sodipodi="http://sodipodi.sourceforge.net/DTD/sodipodi-0.dtd"
   xmlns:inkscape="http://www.inkscape.org/namespaces/inkscape"
   width="33.630711cm"
   height="17.17944cm"
   viewBox="0 0 1191.6394 608.72031"
   id="svg27229"
   version="1.1"
   inkscape:version="1.0.1 (c497b03c, 2020-09-10)"
   sodipodi:docname="logoCicese.svg">
  <defs
     id="defs27231" />
  <sodipodi:namedview
     id="base"
     pagecolor="#ffffff"
     bordercolor="#666666"
     borderopacity="1.0"
     inkscape:pageopacity="0.0"
     inkscape:pageshadow="2"
     inkscape:zoom="0.35"
     inkscape:cx="594.81396"
     inkscape:cy="372.96408"
     inkscape:document-units="px"
     inkscape:current-layer="layer1"
     showgrid="false"
     borderlayer="true"
     inkscape:window-width="1148"
     inkscape:window-height="558"
     inkscape:window-x="1863"
     inkscape:window-y="110"
     inkscape:window-maximized="0"
     fit-margin-top="0"
     fit-margin-left="0"
     fit-margin-right="0"
     fit-margin-bottom="0"
     showguides="true"
     inkscape:guide-bbox="true"
     inkscape:document-rotation="0">
    <sodipodi:guide
       position="1331.4286,-91.428577"
       orientation="1,0"
       id="guide4198" />
  </sodipodi:namedview>
  <metadata
     id="metadata27234">
    <rdf:RDF>
      <cc:Work
         rdf:about="">
        <dc:format>image/svg+xml</dc:format>
        <dc:type
           rdf:resource="http://purl.org/dc/dcmitype/StillImage" />
        <dc:title />
      </cc:Work>
    </rdf:RDF>
  </metadata>
  <g
     inkscape:label="Capa 1"
     inkscape:groupmode="layer"
     id="layer1"
     transform="translate(-20.6607,-420.48071)">
    <path
       style="display:inline;fill:#fff6d5"
       d="m 154.43109,1015.6156 c -20.7811,-1.3694 -29.18992,-4.083 -43.67981,-14.0961 -26.344342,-18.20507 -37.964993,-49.13532 -35.475972,-94.42512 1.370105,-24.92971 6.009666,-40.90068 15.968436,-54.96822 9.131276,-12.8986 16.681996,-19.14899 32.640206,-27.01915 l 11.9472,-5.89198 59.34268,0 59.34268,0 0,20.28651 0,20.28646 -50.48556,0.97352 c -56.87711,1.09673 -58.68605,1.47622 -69.4517,14.57039 -7.97537,9.70041 -10.26236,19.08579 -10.26236,42.11534 0,22.23039 3.06852,32.70233 12.44205,42.4611 10.66402,11.10236 16.0094,12.11368 69.92916,13.23091 l 47.82841,0.99099 0.53901,15.67591 c 0.29631,8.62178 0.0607,18.37314 -0.52314,21.66974 l -1.06209,5.9937 -40.21965,-0.314 c -22.12078,-0.173 -48.5896,-0.8657 -58.81955,-1.5398 z m 129.66821,-0.359 c -1.59799,-1.6637 -2.12568,-25.66693 -2.12568,-96.6902 0,-84.17946 0.3092,-94.79916 2.83671,-97.43059 2.35027,-2.44687 6.52737,-2.86482 24.35708,-2.43706 l 21.52033,0.51636 0.54075,82.06822 c 0.29739,45.13747 0.0217,89.7448 -0.6082,99.12727 l -1.14888,17.0591 -21.62321,0 c -14.45612,0 -22.32772,-0.7335 -23.7489,-2.2131 z m 145.28088,0.3511 c -34.86938,-3.1639 -64.93974,-31.09769 -71.22598,-66.16519 -2.29654,-12.81081 -2.26755,-47.63146 0.0519,-62.51256 2.64114,-16.94433 9.07437,-30.39701 20.49988,-42.86776 11.10635,-12.12243 25.52285,-20.67866 40.16401,-23.8375 5.76501,-1.24383 29.25306,-1.80941 62.3886,-1.50224 l 53.14273,0.49258 0,20.28651 0,20.2865 -49.59988,0.92212 c -47.83101,0.88925 -49.90709,1.07957 -58.21501,5.33741 -16.21941,8.31248 -23.68322,27.96817 -21.8565,57.55834 1.52963,24.77705 8.20401,37.04602 24.27169,44.61632 7.18179,3.38373 12.79695,3.86233 56.68558,4.83191 l 48.71412,1.07611 0.49906,21.66972 0.49906,21.66963 -45.67037,-0.2651 c -25.11868,-0.1457 -52.27575,-0.8643 -60.34902,-1.5968 z m 182.96393,0.046 c -30.06321,-2.378 -50.05863,-18.63749 -56.84737,-46.22549 -3.45454,-14.03871 -1.49852,-28.65653 5.66921,-42.36723 l 4.77762,-9.13884 -6.01012,-13.39069 c -5.03814,-11.22502 -6.00932,-15.47838 -6.00525,-26.30019 0.0102,-23.42896 12.54262,-42.8353 35.14592,-54.41716 l 10.87003,-5.56975 64.65696,0.48575 64.65695,0.48578 0,20.2865 0,20.28652 -60.2284,1.03173 c -33.12562,0.5674 -60.40721,1.18983 -60.62575,1.38314 -1.9819,1.753 -5.80266,12.18885 -5.80266,15.84907 0,6.09205 3.31713,13.44797 6.88279,15.26312 1.57304,0.80072 29.16568,1.88379 61.31705,2.40673 l 58.45697,0.95083 0,20.28651 0,20.28652 -58.45697,0.95082 c -32.15137,0.52294 -59.74401,1.60597 -61.31705,2.4067 -7.50391,3.81994 -8.97827,18.79638 -2.60959,26.50834 l 4.2732,5.17451 59.05525,0.92208 59.05516,0.92212 0.53898,15.67598 c 0.29629,8.62169 0.061,18.3731 -0.52311,21.6697 l -1.06214,5.9937 -49.96241,-0.2778 c -27.47936,-0.1532 -57.13674,-0.8454 -65.90527,-1.5391 z m 153.61477,-19.85288 0.49908,-21.6697 62.58726,-0.92212 c 60.00563,-0.88408 62.69423,-1.07426 65.1769,-4.61057 6.40544,-9.12436 4.14122,-25.4563 -3.9748,-28.66881 -2.44694,-0.96858 -23.72765,-1.76907 -47.2907,-1.77897 -41.3645,-0.015 -43.15325,-0.16918 -51.87969,-4.39939 -11.26372,-5.46031 -20.06857,-14.48704 -25.56197,-26.20617 -6.05664,-12.92065 -6.12315,-39.68571 -0.13343,-53.68304 5.04491,-11.78938 18.2316,-25.01826 31.00946,-31.10859 l 9.44852,-4.50342 68.88045,0.48292 68.88031,0.48294 0,20.28652 0,20.28651 -63.28131,0.92214 c -62.93319,0.91704 -63.30339,0.94519 -67.31405,5.12285 -6.03455,6.28588 -5.68803,19.53343 0.65972,25.21793 4.53407,4.06035 6.1189,4.23127 46.94271,5.06242 48.30136,0.9834 52.12952,1.94316 67.51569,16.92668 12.67639,12.34452 17.07294,22.67164 17.83668,41.8973 0.58081,14.62247 0.21882,16.69488 -4.68545,26.80891 -5.92951,12.22934 -18.41789,25.29744 -28.33802,29.65344 -8.45998,3.715 -44.682,5.8172 -102.69176,5.9598 l -44.7847,0.1102 0.49907,-21.66968 z m 261.78412,19.91748 c -21.7551,-1.3143 -30.87288,-4.8652 -43.42675,-16.9127 -11.70485,-11.23248 -16.96542,-22.99447 -18.11863,-40.51027 -0.86802,-13.18634 -0.52052,-15.18994 4.61761,-26.62129 3.05611,-6.799 5.55654,-13.39864 5.55654,-14.66598 0,-1.26728 -2.49097,-8.02082 -5.53519,-15.00778 -5.08654,-11.67423 -5.45959,-13.85176 -4.60417,-26.87181 1.12632,-17.14695 6.89393,-29.53666 18.93681,-40.6795 15.68858,-14.51631 13.86961,-14.2249 89.07348,-14.27046 l 66.8714,-0.0405 0,19.32926 c 0,18.5609 -0.1586,19.36347 -3.9858,20.18918 -2.1922,0.47298 -28.697,1.22796 -58.8998,1.67776 -30.2028,0.44982 -56.2935,1.4061 -57.9795,2.12507 -3.7855,1.61434 -6.8517,12.48179 -5.5028,19.50368 2.2035,11.47019 2.0282,11.43696 65.378,12.41294 47.5193,0.73214 58.1451,1.3657 60.2858,3.59467 2.0034,2.08552 2.4835,6.78324 2.0944,20.4909 l -0.5046,17.78512 -58.4571,0.92208 c -41.545,0.65537 -59.5559,1.5778 -62.2563,3.18847 -3.712,2.21428 -7.7237,11.01828 -7.706,16.9122 0,1.62372 1.9212,5.44191 4.2587,8.48489 l 4.2499,5.5327 59.9554,0.92211 59.9554,0.9221 0.5391,15.67603 c 0.2963,8.62168 0.06,18.37313 -0.5232,21.66973 l -1.0622,5.9937 -47.3056,-0.3141 c -26.0177,-0.1729 -55.6751,-0.8198 -65.9049,-1.438 z M 455.5731,757.26678 c -45.1125,-6.04547 -68.58213,-14.47188 -132.85673,-47.70037 -25.13579,-12.99461 -52.2427,-25.63316 -61.11416,-28.49448 -26.15832,-8.43675 -26.76583,-8.9242 -13.28566,-10.65956 6.33284,-0.81525 39.81276,-3.59075 74.39982,-6.16778 94.56426,-7.04579 98.26776,-7.72855 106.83411,-19.69388 11.2823,-15.75891 0.10086,-62.10327 -22.72247,-94.17639 l -6.26509,-8.80432 -14.17145,0.36301 c -18.78212,0.4811 -20.54592,-1.61584 -8.94416,-10.63336 16.16293,-12.5627 10.60261,-16.66358 -11.94642,-8.81078 -18.95832,6.60231 -40.72193,7.45531 -48.84462,1.91445 -3.25036,-2.21729 -4.34831,-3.99833 -3.20106,-5.19268 0.96039,-0.99988 11.57366,-5.38074 23.58509,-9.73523 12.01137,-4.35453 22.13864,-8.85359 22.50505,-9.99792 0.93597,-2.92329 -11.42764,-2.65716 -38.31141,0.8247 -13.23965,1.71477 -26.85075,2.42348 -33.21549,1.72956 -13.69632,-1.49332 -29.07335,-8.64264 -29.07335,-13.51719 0,-4.2929 5.76192,-5.14159 47.44422,-6.98791 15.86437,-0.70271 29.27387,-2.00125 29.79887,-2.88558 0.52497,-0.88438 -1.86726,-2.83541 -5.31607,-4.33566 -4.67514,-2.03363 -13.83445,-2.73713 -35.99883,-2.76476 -49.27673,-0.0613 -62.24179,-3.85889 -82.61883,-24.19902 l -10.88064,-10.86092 76.17123,0.6556 c 81.33603,0.70006 77.59275,0.32828 108.94256,10.81325 15.90835,5.32049 40.67418,18.32143 57.57127,30.22237 34.36319,24.20267 53.07946,45.04115 73.80554,82.17427 6.17249,11.05883 15.2085,27.18062 20.07992,35.8262 15.72087,27.90085 44.82043,53.85614 58.44295,52.12825 4.32769,-0.54893 3.75785,-1.25726 -6.81419,-8.46987 -15.10208,-10.30316 -24.62293,-23.75678 -44.29041,-62.58539 -20.42249,-40.3191 -32.52713,-59.18469 -48.90109,-76.21431 -19.87896,-20.67503 -50.18044,-39.94577 -81.16277,-51.61699 -11.86775,-4.47059 -15.43988,-7.34403 -9.12981,-7.34403 8.09773,0 48.87531,9.59043 67.6617,15.91327 10.78225,3.62891 28.44102,11.25407 39.2417,16.94482 17.34567,9.13913 21.72679,12.50699 37.53808,28.85633 21.25689,21.98021 27.86382,32.98383 45.75851,76.20912 16.58183,40.054 23.23746,52.93066 30.64374,59.28647 14.00558,12.019 34.0277,12.01387 50.25102,-0.0152 12.89891,-9.56235 23.61011,-34.66622 28.18735,-66.06274 3.19012,-21.88222 3.78097,-22.32478 29.80356,-22.32478 32.59375,0 56.15259,7.46967 76.88327,24.37702 l 10.17155,8.29559 119.15838,0.90665 c 103.55222,0.78787 119.85222,1.28473 124.45652,3.79367 7.1888,3.91716 13.5755,10.41408 12.3187,12.53116 -0.6277,1.05742 -51.6318,1.73247 -130.68168,1.72964 l -129.65217,-0.004 -13.2857,-9.2143 c -23.72387,-16.4537 -39.71767,-19.31546 -57.45549,-10.28051 -11.16665,5.68787 -20.52693,17.16251 -32.35508,39.66364 -26.04645,49.54896 -36.39941,64.44069 -58.48312,84.12251 -24.25279,21.61497 -50.59646,35.53851 -83.74648,44.26304 -25.04004,6.59009 -88.80287,9.97303 -116.93028,6.20371 z M 237.68799,711.45694 c -3.40997,-0.70985 -8.05956,-2.34023 -10.33245,-3.62304 -4.8072,-2.71318 -12.65358,-19.09751 -12.67873,-26.47503 -0.0144,-4.37345 0.69142,-5.07166 5.13083,-5.07166 6.06928,0 58.0987,18.30918 72.36576,25.46554 5.44324,2.73033 10.18505,5.87899 10.53738,6.99695 1.21359,3.85096 -49.40501,5.95849 -65.02279,2.70724 z m 503.97003,-8.2418 c -10.82868,-3.56541 -17.73076,-7.79991 -22.66528,-13.90525 -18.14459,-22.44989 -3.83358,-51.87956 31.5183,-64.81542 6.34936,-2.32329 18.55085,-4.48747 30.93059,-5.48607 27.31254,-2.20315 260.47277,-2.24816 260.47277,-0.0505 0,0.92744 -20.1278,8.75913 -44.72848,17.40376 -24.60078,8.64463 -67.84562,23.91706 -96.09978,33.9387 -74.47237,26.41506 -110.63984,35.62875 -138.84594,35.37088 -7.42307,-0.0679 -16.68506,-1.17318 -20.58218,-2.45634 z m 13.52858,-99.47032 c -2.91795,-3.66038 -1.10145,-9.91571 3.30203,-11.37072 1.85001,-0.61131 5.75538,0.1759 8.67854,1.74987 2.92314,1.57375 8.49595,2.86139 12.38395,2.86139 16.13113,0 6.55168,6.26504 -13.14677,8.59811 -6.84088,0.81023 -9.44663,0.38315 -11.21775,-1.83865 z"
       id="path20454"
       inkscape:connector-curvature="0"
       sodipodi:nodetypes="csssscccccsssssccccsccsssscsccsscssssscccssssscccscccsscscscccccssscscccscscccccccccccscsccssscccccsssssscssccccsccsscsscsssssscccscccccccccscccsssssscsssccscssssccsscsssssssssssssssscssscsscscsssssccsscsscscsssssssccsccsss" />
  </g>
</svg>
